<svg version="1.1" id="Layer_1" xmlns="http://www.w3.org/2000/svg" xmlns:xlink="http://www.w3.org/1999/xlink" x="0px" y="0px"
	 width="100%" viewBox="0 0 320 240" enable-background="new 0 0 320 240" xml:space="preserve">
<path fill="#000000" opacity="1.000000" stroke="none" 
	d="
M180.000000,239.984375 
	C120.819878,239.985519 62.139763,239.985519 3.459643,239.985519 
	C3.400666,239.323959 3.341689,238.662415 3.282712,238.000854 
	C4.608902,236.073029 6.891699,236.682297 8.819533,236.679245 
	C28.817005,236.647629 48.814579,236.682526 68.812126,236.694260 
	C77.706459,236.699478 77.700020,236.694656 77.695816,227.577286 
	C77.692581,220.578186 77.672157,213.578720 77.746452,206.580338 
	C77.760948,205.214569 77.174690,203.063477 79.298927,202.963470 
	C81.828873,202.844360 81.277695,205.187042 81.293205,206.705154 
	C81.366463,213.870178 81.270653,221.037033 81.353592,228.201859 
	C81.423332,234.225586 83.138573,236.044724 89.108490,236.047668 
	C134.769577,236.070114 180.430695,236.012024 226.091797,236.030334 
	C229.985748,236.031891 232.799377,234.796478 232.872589,230.539581 
	C233.021088,221.906906 232.916946,213.269897 232.916946,204.479172 
	C229.703491,204.015396 227.993240,206.278030 225.768066,207.096008 
	C213.483505,211.611847 200.990250,214.295563 187.749847,214.511429 
	C167.342072,214.844131 147.240829,213.086700 127.334930,208.731400 
	C125.871941,208.411316 124.411629,208.059372 122.977692,207.629990 
	C119.523994,206.595810 117.334785,204.422241 118.129158,200.651718 
	C118.953362,196.739548 121.858391,195.271027 125.666069,195.818970 
	C132.895325,196.859314 140.098434,198.080078 147.323257,199.152908 
	C170.544220,202.600998 193.628830,203.916428 216.049149,194.737000 
	C221.177063,192.637512 225.843521,189.771439 230.341904,186.589615 
	C231.750717,185.593155 233.104950,184.499100 232.399323,182.513901 
	C231.799744,180.826965 230.482697,179.720459 228.711014,179.512543 
	C226.899582,179.299957 225.053070,179.348297 223.221893,179.347763 
	C179.060669,179.334900 134.899460,179.331146 90.738243,179.324905 
	C82.533600,179.323746 81.308578,180.580811 81.348213,188.970566 
	C81.356873,190.803467 81.386032,192.636719 81.360168,194.469162 
	C81.345093,195.537659 81.006470,196.518936 79.775291,196.629929 
	C78.573540,196.738281 77.847290,195.919724 77.819519,194.830399 
	C77.701073,190.183640 76.922760,185.424973 78.317200,180.934067 
	C79.387123,177.488235 82.277939,175.688354 86.028923,175.660675 
	C89.361687,175.636063 92.700218,175.510590 96.025940,175.659378 
	C99.495857,175.814590 100.976784,174.307968 100.672379,170.903427 
	C100.628029,170.407410 100.589897,169.890442 100.677864,169.406601 
	C101.000877,167.629898 99.699226,164.673172 102.633415,164.597916 
	C105.497391,164.524460 104.970589,167.504745 104.814613,169.281479 
	C104.359459,174.466385 106.701447,176.098190 111.583275,175.701752 
	C115.390739,175.392578 119.243935,175.653534 123.076797,175.648682 
	C135.127853,175.633469 141.288818,169.974182 142.874680,157.980270 
	C144.500565,145.683426 143.369492,133.356079 143.697891,121.047981 
	C143.738785,119.514961 143.660339,117.842461 142.111023,117.095383 
	C134.586746,113.467140 128.522186,107.533951 120.867882,104.037292 
	C113.439613,100.643890 105.962196,101.475975 98.350624,102.395370 
	C95.044144,102.794746 91.149864,103.644928 89.964233,99.369072 
	C88.757004,95.015335 90.288300,91.089249 94.356880,88.618828 
	C99.026169,85.783653 104.315338,86.366592 109.406250,86.349411 
	C113.343872,86.336121 117.283760,86.992378 121.394867,87.366661 
	C121.962982,83.387184 121.286827,79.967140 119.152412,76.404343 
	C112.442284,78.821220 104.988327,77.650192 98.855949,82.454185 
	C95.567520,85.030258 91.865318,82.802200 88.659019,80.845688 
	C85.770203,79.082909 84.655083,76.798706 85.483383,73.287949 
	C86.384315,69.469299 85.096176,65.694389 84.169060,61.987507 
	C83.681694,60.038849 82.902405,58.061569 83.376335,56.104839 
	C84.131332,52.987751 83.139671,50.723503 81.056747,48.440739 
	C79.430176,46.658108 77.966103,44.545116 77.876595,42.067036 
	C79.538322,39.887730 82.346565,41.189522 84.216843,38.997688 
	C83.663429,36.820850 83.016487,34.309624 82.387428,31.793928 
	C81.419380,27.922590 83.294762,26.484188 86.885551,26.720984 
	C89.903809,26.920025 92.831520,27.709675 95.471443,29.153736 
	C98.334442,30.719826 100.896530,30.857849 103.956131,29.396637 
	C111.706917,25.695002 119.701080,25.782864 127.736954,28.686974 
	C148.770966,36.288513 169.143677,45.323948 188.483368,56.606743 
	C189.866058,57.413399 191.660416,57.833824 192.002991,60.145241 
	C189.834564,62.593658 187.905746,60.548801 186.109131,59.535133 
	C167.058624,48.786633 147.174957,39.896252 126.655640,32.340778 
	C119.541786,29.721365 112.615540,29.216467 105.938240,32.909863 
	C101.682518,35.263824 97.999947,35.459698 93.880173,32.786423 
	C92.016159,31.576881 89.770668,30.619734 87.105911,30.822563 
	C85.880661,34.215363 88.008125,36.618515 89.746414,38.807331 
	C91.779457,41.367306 92.125893,43.521690 90.560555,46.487549 
	C87.695900,51.915199 86.278694,57.633488 88.470993,63.796925 
	C89.424965,66.478951 89.463219,69.373146 89.290520,72.212639 
	C89.128548,74.875664 89.565437,77.040550 92.198288,78.537979 
	C94.807465,80.021919 96.849312,79.480721 99.062363,77.823921 
	C101.645966,75.889725 104.628395,74.704880 107.881310,74.737961 
	C112.646751,74.786423 116.734741,73.494171 119.814552,69.666420 
	C120.548363,68.754402 121.356094,67.786079 122.735802,68.537270 
	C123.804459,69.119102 123.684181,70.061462 123.571762,71.128799 
	C122.961342,76.923782 125.583031,82.181183 126.480347,87.732681 
	C126.857712,90.067345 129.240051,90.396439 130.993561,91.250244 
	C135.516891,93.452705 140.501968,94.886116 144.360352,98.674873 
	C141.958939,101.776299 140.097595,99.758698 138.406754,98.874329 
	C126.855347,92.832474 114.914940,88.640022 101.556122,90.231056 
	C98.174774,90.633789 95.399033,91.645622 93.986847,94.969658 
	C92.940018,97.433701 93.656029,98.901306 96.487869,98.845024 
	C98.483131,98.805382 100.529823,98.852081 102.459549,98.430229 
	C113.198242,96.082710 122.609261,99.412239 131.125946,105.494652 
	C137.545486,110.079323 144.334824,113.846199 151.448532,117.160576 
	C153.753464,118.234482 155.403183,117.964951 157.289780,116.298386 
	C162.468475,111.723694 164.733521,105.794914 165.665146,99.197388 
	C165.914871,97.428947 165.693787,95.465157 168.567337,95.183052 
	C170.436310,98.702942 169.076141,102.025482 168.250443,105.296082 
	C167.347458,108.872818 166.190613,112.574974 163.596649,115.144951 
	C159.637558,119.067459 160.374466,122.502441 163.275665,126.448090 
	C165.101654,128.931442 166.528748,131.708099 168.052048,134.216919 
	C170.336044,133.549881 170.727203,131.950485 171.416138,130.688217 
	C177.742630,119.096626 188.166519,114.553162 200.680344,113.748657 
	C204.158020,113.525078 207.684418,113.672981 211.159500,113.979172 
	C212.618362,114.107712 215.015274,114.288109 214.572876,116.621704 
	C214.175827,118.716003 212.276306,117.715324 210.833389,117.586380 
	C204.674759,117.035980 198.590179,117.176727 192.511002,118.738586 
	C177.060455,122.708145 163.207001,143.311859 174.078583,160.796570 
	C176.449783,164.610168 175.174500,165.930084 171.020096,166.543121 
	C166.438950,167.219116 161.729538,167.403641 157.319717,169.089661 
	C155.208023,169.897018 152.995789,170.873184 153.453384,173.540131 
	C153.929230,176.313568 156.519226,175.600555 158.387894,175.606003 
	C177.052124,175.660339 195.716568,175.659729 214.380890,175.632278 
	C215.687027,175.630371 217.298630,175.722443 218.251968,175.044678 
	C229.866714,166.787292 241.303741,158.327667 244.816360,143.278122 
	C247.035980,133.768402 245.267197,124.728058 241.320618,116.055145 
	C233.873489,99.689491 222.792252,86.106636 209.038223,74.631493 
	C208.654739,74.311562 208.212738,74.055191 207.859543,73.706802 
	C206.843796,72.704887 205.056900,71.776054 206.477768,70.086807 
	C207.621475,68.727066 208.934540,69.875198 209.992386,70.631218 
	C211.346207,71.598770 212.689743,72.603783 213.911316,73.729774 
	C228.022476,86.736877 240.247849,101.110008 246.719131,119.577599 
	C249.588776,127.766846 250.557449,136.211685 248.229584,144.611694 
	C246.953659,149.215790 248.052628,152.991684 249.804672,157.042297 
	C254.915909,168.859161 254.826569,180.351791 247.035355,191.148102 
	C245.968430,192.626526 244.899597,194.314850 243.416931,195.244873 
	C237.511719,198.949036 236.613602,204.355225 237.008865,210.744705 
	C237.429871,217.550720 237.477173,224.432907 236.954712,231.225464 
	C236.609329,235.715729 238.319321,236.755859 242.235794,236.725555 
	C254.066910,236.633987 265.899261,236.707291 277.731140,236.711502 
	C289.229767,236.715591 300.728485,236.696579 312.226990,236.731140 
	C314.169495,236.736984 316.216888,236.372757 317.969940,237.583282 
	C317.955688,239.585770 316.457367,239.233948 315.458984,239.281525 
	C312.798126,239.408356 310.128815,239.362610 307.462799,239.375427 
	C265.141876,239.578979 222.820938,239.780930 180.000000,239.984375 
M240.251633,170.640167 
	C242.765305,179.356003 238.828857,185.379166 232.123749,190.312073 
	C217.885696,200.786942 201.444565,204.356186 184.281174,205.260040 
	C164.897568,206.280807 145.852005,203.151688 126.864914,199.738754 
	C124.965942,199.397415 122.953651,198.911697 122.432152,201.392670 
	C121.963287,203.623260 124.002716,204.117233 125.596840,204.443634 
	C130.472855,205.442017 135.367371,206.363403 140.276459,207.184540 
	C162.174484,210.847443 184.125717,212.750992 206.191666,208.661392 
	C217.626953,206.542023 228.364365,202.605515 237.619095,195.377090 
	C249.872345,185.806641 253.788635,170.252045 244.256989,155.900665 
	C241.169632,160.141342 236.473709,163.679932 240.251633,170.640167 
M147.439087,123.618668 
	C147.406158,127.781265 147.480728,131.948013 147.320328,136.105682 
	C146.821732,149.028839 149.833359,162.518723 140.663727,174.293030 
	C143.673309,175.062180 146.541000,176.020004 147.868286,173.324127 
	C149.837936,169.323532 152.936523,166.003433 154.085510,161.464142 
	C155.797226,154.701645 157.580292,147.835617 160.449158,141.520706 
	C163.510849,134.781357 161.367844,129.692719 157.480377,124.578285 
	C155.076279,121.415405 149.993713,120.588875 147.439087,123.618668 
M165.593948,140.374817 
	C161.688400,147.862000 160.155243,156.061234 157.620041,164.687546 
	C162.104263,163.854156 165.892944,164.064560 169.568970,161.846375 
	C166.937668,154.877487 165.962891,147.765366 165.593948,140.374817 
M227.664230,174.995697 
	C230.407043,176.026398 233.149872,177.057083 236.144699,178.182480 
	C237.598282,174.532257 236.830353,171.473145 234.421707,168.374603 
	C231.459381,169.916351 229.021011,171.725433 227.664230,174.995697 
z"/>
<path fill="#000000" opacity="1.000000" stroke="none" 
	d="
M85.246765,137.272614 
	C78.766426,134.797333 76.206490,129.735733 78.319489,124.334557 
	C80.310791,119.244484 86.315063,116.996071 91.704491,119.322281 
	C96.502625,121.393280 98.497818,127.268898 95.770576,132.820587 
	C94.515060,135.376343 95.116776,137.188065 96.313576,139.262238 
	C97.969856,142.132751 99.620506,145.008347 101.182678,147.930359 
	C101.786972,149.060684 101.705536,150.243042 100.342178,150.854904 
	C99.194023,151.370163 98.423920,150.628494 97.892563,149.757462 
	C96.252998,147.069809 94.474228,144.439072 93.132965,141.604767 
	C91.571686,138.305496 89.248619,136.822815 85.246765,137.272614 
M91.943634,131.268692 
	C93.459518,128.455139 93.399345,125.788147 90.910484,123.581398 
	C89.109749,121.984787 86.852318,121.747459 84.877823,123.022720 
	C82.202927,124.750336 80.245041,127.017517 82.273499,130.502563 
	C84.368584,134.102097 87.343788,134.538666 91.943634,131.268692 
z"/>
<path fill="#000000" opacity="1.000000" stroke="none" 
	d="
M101.915359,212.818619 
	C100.907288,215.217346 98.296005,217.050797 101.235146,219.581635 
	C102.025558,220.262222 102.153938,221.347839 101.183228,222.181213 
	C100.439659,222.819565 99.540009,222.748825 98.918655,222.162949 
	C97.032547,220.384445 95.268433,220.191330 93.345512,222.107742 
	C92.713852,222.737274 91.805267,222.705750 91.081032,222.105377 
	C90.335503,221.487350 90.355507,220.648132 90.708511,219.845230 
	C90.972839,219.244034 91.240051,218.527802 91.729477,218.161118 
	C94.526505,216.065567 86.524376,211.829742 92.454933,211.699829 
	C95.015503,211.643707 97.546494,212.646774 100.172821,211.100769 
	C100.895790,210.675186 101.588837,211.668411 101.915359,212.818619 
z"/>
<path fill="#000000" opacity="1.000000" stroke="none" 
	d="
M109.092331,217.570984 
	C109.204651,216.954391 109.222969,216.619583 109.145561,216.308594 
	C108.753975,214.735474 105.867149,213.508392 108.001122,211.667999 
	C109.964279,209.974930 111.037819,212.894562 112.862694,213.273560 
	C114.021271,213.339386 114.684784,212.224701 115.621071,211.600647 
	C116.525383,210.997925 117.421761,210.735931 118.294724,211.607147 
	C119.172592,212.483246 119.003136,213.470947 118.260338,214.251938 
	C116.666405,215.927917 116.132545,217.509415 118.029404,219.360367 
	C118.746933,220.060547 119.167007,221.069931 118.286163,222.006058 
	C117.421097,222.925430 116.456810,222.585754 115.615967,221.966507 
	C114.249733,220.960342 112.984177,219.850586 111.255562,221.396210 
	C110.277306,222.270889 109.061607,223.384918 107.809502,222.075394 
	C106.053001,220.238373 108.344040,219.218903 109.092331,217.570984 
z"/>
<path fill="#000000" opacity="1.000000" stroke="none" 
	d="
M94.994614,158.998642 
	C96.268112,160.897858 97.541611,162.797089 98.953514,164.902725 
	C97.318825,167.012131 96.777580,171.622025 93.377182,170.443863 
	C89.731766,169.180771 94.634705,166.516296 93.926941,164.111038 
	C92.497047,162.555725 90.980247,164.145218 89.470116,164.213150 
	C88.042572,164.277374 86.168579,164.812103 85.827065,162.750137 
	C85.523010,160.914413 87.252174,160.916824 88.526474,160.624817 
	C90.460022,160.181717 92.376678,159.664886 94.658218,159.094513 
	C95.015938,159.009628 94.994614,158.998642 94.994614,158.998642 
z"/>
<path fill="#000000" opacity="1.000000" stroke="none" 
	d="
M95.028229,159.015869 
	C93.361664,157.673645 91.632095,156.382553 90.020226,154.958282 
	C88.761452,153.846008 88.669487,152.326660 90.372910,151.871567 
	C92.743484,151.238251 94.272614,153.347870 95.956627,154.569870 
	C97.863304,155.953461 97.137306,157.384308 95.273697,158.789612 
	C94.994614,158.998642 95.015938,159.009628 95.028229,159.015869 
z"/>
<path fill="#000000" opacity="1.000000" stroke="none" 
	d="
M201.776520,66.629333 
	C198.461105,68.662590 197.591568,65.975029 195.025406,64.023277 
	C199.099655,62.396404 200.870544,63.399204 201.776520,66.629333 
z"/>
<path fill="#000000" opacity="1.000000" stroke="none" 
	d="
M109.713020,158.420120 
	C108.278847,156.937668 108.659309,155.859238 110.131416,155.208435 
	C111.491158,154.607315 113.048393,154.310760 114.295815,155.291733 
	C115.477188,156.220764 115.125443,157.446213 113.836105,157.937881 
	C112.661942,158.385620 111.308662,158.363632 109.713020,158.420120 
z"/>
</svg>